<mxfile host="app.diagrams.net" agent="Mozilla/5.0 (Windows NT 10.0; Win64; x64) AppleWebKit/537.36 (KHTML, like Gecko) Chrome/129.0.0.0 Safari/537.36" version="24.7.17">
  <diagram name="Página-1" id="V3-kL6qAkb_YiDEA1Mql">
    <mxGraphModel grid="1" page="1" gridSize="10" guides="1" tooltips="1" connect="1" arrows="1" fold="1" pageScale="1" pageWidth="827" pageHeight="1169" math="0" shadow="0">
      <root>
        <mxCell id="0" />
        <mxCell id="1" parent="0" />
        <mxCell id="MJdFK97bVDRi1eDM5ko9-4" value="" style="endArrow=none;html=1;rounded=0;" edge="1" parent="1">
          <mxGeometry width="50" height="50" relative="1" as="geometry">
            <mxPoint x="230" y="200" as="sourcePoint" />
            <mxPoint x="1370" y="200" as="targetPoint" />
          </mxGeometry>
        </mxCell>
        <mxCell id="MJdFK97bVDRi1eDM5ko9-5" value="" style="endArrow=none;html=1;rounded=0;" edge="1" parent="1">
          <mxGeometry width="50" height="50" relative="1" as="geometry">
            <mxPoint x="370" y="140" as="sourcePoint" />
            <mxPoint x="370" y="1160" as="targetPoint" />
          </mxGeometry>
        </mxCell>
        <mxCell id="MJdFK97bVDRi1eDM5ko9-6" value="" style="endArrow=none;html=1;rounded=0;" edge="1" parent="1">
          <mxGeometry width="50" height="50" relative="1" as="geometry">
            <mxPoint x="700" y="140" as="sourcePoint" />
            <mxPoint x="700" y="1170" as="targetPoint" />
          </mxGeometry>
        </mxCell>
        <mxCell id="MJdFK97bVDRi1eDM5ko9-7" value="" style="endArrow=none;html=1;rounded=0;" edge="1" parent="1">
          <mxGeometry width="50" height="50" relative="1" as="geometry">
            <mxPoint x="1038.89" y="125" as="sourcePoint" />
            <mxPoint x="1040" y="1160" as="targetPoint" />
          </mxGeometry>
        </mxCell>
        <mxCell id="MJdFK97bVDRi1eDM5ko9-8" value="" style="endArrow=none;html=1;rounded=0;" edge="1" parent="1">
          <mxGeometry width="50" height="50" relative="1" as="geometry">
            <mxPoint x="1350" y="150" as="sourcePoint" />
            <mxPoint x="1350" y="1160" as="targetPoint" />
          </mxGeometry>
        </mxCell>
        <mxCell id="MJdFK97bVDRi1eDM5ko9-9" value="Usuario" style="shape=umlActor;verticalLabelPosition=bottom;verticalAlign=top;html=1;outlineConnect=0;" vertex="1" parent="1">
          <mxGeometry x="280" y="90" width="50" height="90" as="geometry" />
        </mxCell>
        <mxCell id="MJdFK97bVDRi1eDM5ko9-10" value="Interfaz" style="text;html=1;align=center;verticalAlign=middle;resizable=0;points=[];autosize=1;strokeColor=none;fillColor=none;" vertex="1" parent="1">
          <mxGeometry x="500" y="150" width="60" height="30" as="geometry" />
        </mxCell>
        <mxCell id="MJdFK97bVDRi1eDM5ko9-11" value="Sistema" style="text;html=1;align=center;verticalAlign=middle;resizable=0;points=[];autosize=1;strokeColor=none;fillColor=none;" vertex="1" parent="1">
          <mxGeometry x="770" y="150" width="70" height="30" as="geometry" />
        </mxCell>
        <mxCell id="MJdFK97bVDRi1eDM5ko9-12" value="Base de datos" style="text;html=1;align=center;verticalAlign=middle;resizable=0;points=[];autosize=1;strokeColor=none;fillColor=none;" vertex="1" parent="1">
          <mxGeometry x="1040" y="140" width="100" height="30" as="geometry" />
        </mxCell>
        <mxCell id="MJdFK97bVDRi1eDM5ko9-13" value="" style="points=[[0.145,0.145,0],[0.5,0,0],[0.855,0.145,0],[1,0.5,0],[0.855,0.855,0],[0.5,1,0],[0.145,0.855,0],[0,0.5,0]];shape=mxgraph.bpmn.event;html=1;verticalLabelPosition=bottom;labelBackgroundColor=#ffffff;verticalAlign=top;align=center;perimeter=ellipsePerimeter;outlineConnect=0;aspect=fixed;outline=standard;symbol=general;shadow=1;strokeColor=default;fontFamily=Helvetica;fontSize=12;fontColor=default;fillColor=#000000;" vertex="1" parent="1">
          <mxGeometry x="110" y="845" width="50" height="50" as="geometry" />
        </mxCell>
        <mxCell id="MJdFK97bVDRi1eDM5ko9-14" value="" style="edgeStyle=orthogonalEdgeStyle;rounded=0;orthogonalLoop=1;jettySize=auto;html=1;" edge="1" parent="1" source="MJdFK97bVDRi1eDM5ko9-15" target="MJdFK97bVDRi1eDM5ko9-17">
          <mxGeometry relative="1" as="geometry" />
        </mxCell>
        <mxCell id="MJdFK97bVDRi1eDM5ko9-43" style="edgeStyle=orthogonalEdgeStyle;rounded=0;orthogonalLoop=1;jettySize=auto;html=1;exitX=1;exitY=0.5;exitDx=0;exitDy=0;entryX=0;entryY=0.5;entryDx=0;entryDy=0;" edge="1" parent="1" source="MJdFK97bVDRi1eDM5ko9-15" target="MJdFK97bVDRi1eDM5ko9-41">
          <mxGeometry relative="1" as="geometry" />
        </mxCell>
        <mxCell id="MJdFK97bVDRi1eDM5ko9-44" style="edgeStyle=orthogonalEdgeStyle;rounded=0;orthogonalLoop=1;jettySize=auto;html=1;exitX=1;exitY=0.5;exitDx=0;exitDy=0;entryX=0;entryY=0.5;entryDx=0;entryDy=0;" edge="1" parent="1" source="MJdFK97bVDRi1eDM5ko9-15" target="MJdFK97bVDRi1eDM5ko9-42">
          <mxGeometry relative="1" as="geometry" />
        </mxCell>
        <mxCell id="MJdFK97bVDRi1eDM5ko9-45" style="edgeStyle=orthogonalEdgeStyle;rounded=0;orthogonalLoop=1;jettySize=auto;html=1;exitX=1;exitY=0.5;exitDx=0;exitDy=0;entryX=0;entryY=0.5;entryDx=0;entryDy=0;" edge="1" parent="1" source="MJdFK97bVDRi1eDM5ko9-15" target="MJdFK97bVDRi1eDM5ko9-38">
          <mxGeometry relative="1" as="geometry" />
        </mxCell>
        <mxCell id="MJdFK97bVDRi1eDM5ko9-15" value="Iniciar sesión" style="rounded=0;whiteSpace=wrap;html=1;" vertex="1" parent="1">
          <mxGeometry x="235" y="255" width="120" height="60" as="geometry" />
        </mxCell>
        <mxCell id="MJdFK97bVDRi1eDM5ko9-52" style="edgeStyle=orthogonalEdgeStyle;rounded=0;orthogonalLoop=1;jettySize=auto;html=1;exitX=1;exitY=0.5;exitDx=0;exitDy=0;entryX=0;entryY=0.5;entryDx=0;entryDy=0;" edge="1" parent="1" source="MJdFK97bVDRi1eDM5ko9-17" target="MJdFK97bVDRi1eDM5ko9-51">
          <mxGeometry relative="1" as="geometry" />
        </mxCell>
        <mxCell id="MJdFK97bVDRi1eDM5ko9-17" value="Opción de &quot;Ingresar datos contables &quot;" style="rounded=0;whiteSpace=wrap;html=1;" vertex="1" parent="1">
          <mxGeometry x="400" y="255" width="120" height="60" as="geometry" />
        </mxCell>
        <mxCell id="MJdFK97bVDRi1eDM5ko9-18" style="edgeStyle=orthogonalEdgeStyle;rounded=0;orthogonalLoop=1;jettySize=auto;html=1;exitX=1;exitY=0.5;exitDx=0;exitDy=0;exitPerimeter=0;entryX=0;entryY=0.5;entryDx=0;entryDy=0;" edge="1" parent="1" source="MJdFK97bVDRi1eDM5ko9-19" target="MJdFK97bVDRi1eDM5ko9-15">
          <mxGeometry relative="1" as="geometry" />
        </mxCell>
        <mxCell id="MJdFK97bVDRi1eDM5ko9-19" value="" style="points=[[0.145,0.145,0],[0.5,0,0],[0.855,0.145,0],[1,0.5,0],[0.855,0.855,0],[0.5,1,0],[0.145,0.855,0],[0,0.5,0]];shape=mxgraph.bpmn.event;html=1;verticalLabelPosition=bottom;labelBackgroundColor=#ffffff;verticalAlign=top;align=center;perimeter=ellipsePerimeter;outlineConnect=0;aspect=fixed;outline=standard;symbol=general;shadow=1;strokeColor=default;fontFamily=Helvetica;fontSize=12;fontColor=default;fillColor=#000000;" vertex="1" parent="1">
          <mxGeometry x="110" y="260" width="50" height="50" as="geometry" />
        </mxCell>
        <mxCell id="MJdFK97bVDRi1eDM5ko9-70" style="edgeStyle=orthogonalEdgeStyle;rounded=0;orthogonalLoop=1;jettySize=auto;html=1;exitX=1;exitY=0.5;exitDx=0;exitDy=0;entryX=0.5;entryY=0;entryDx=0;entryDy=0;" edge="1" parent="1" source="MJdFK97bVDRi1eDM5ko9-23" target="MJdFK97bVDRi1eDM5ko9-34">
          <mxGeometry relative="1" as="geometry" />
        </mxCell>
        <mxCell id="MJdFK97bVDRi1eDM5ko9-23" value="Guardar datos" style="rounded=0;whiteSpace=wrap;html=1;" vertex="1" parent="1">
          <mxGeometry x="1070" y="300" width="120" height="60" as="geometry" />
        </mxCell>
        <mxCell id="MJdFK97bVDRi1eDM5ko9-61" style="edgeStyle=orthogonalEdgeStyle;rounded=0;orthogonalLoop=1;jettySize=auto;html=1;exitX=1;exitY=0.5;exitDx=0;exitDy=0;entryX=0;entryY=0.5;entryDx=0;entryDy=0;" edge="1" parent="1" source="MJdFK97bVDRi1eDM5ko9-25" target="MJdFK97bVDRi1eDM5ko9-57">
          <mxGeometry relative="1" as="geometry" />
        </mxCell>
        <mxCell id="MJdFK97bVDRi1eDM5ko9-62" style="edgeStyle=orthogonalEdgeStyle;rounded=0;orthogonalLoop=1;jettySize=auto;html=1;exitX=1;exitY=0.5;exitDx=0;exitDy=0;entryX=0;entryY=0.5;entryDx=0;entryDy=0;" edge="1" parent="1" source="MJdFK97bVDRi1eDM5ko9-25" target="MJdFK97bVDRi1eDM5ko9-58">
          <mxGeometry relative="1" as="geometry" />
        </mxCell>
        <mxCell id="MJdFK97bVDRi1eDM5ko9-63" style="edgeStyle=orthogonalEdgeStyle;rounded=0;orthogonalLoop=1;jettySize=auto;html=1;exitX=1;exitY=0.5;exitDx=0;exitDy=0;entryX=0;entryY=0.5;entryDx=0;entryDy=0;" edge="1" parent="1" source="MJdFK97bVDRi1eDM5ko9-25" target="MJdFK97bVDRi1eDM5ko9-59">
          <mxGeometry relative="1" as="geometry" />
        </mxCell>
        <mxCell id="MJdFK97bVDRi1eDM5ko9-64" style="edgeStyle=orthogonalEdgeStyle;rounded=0;orthogonalLoop=1;jettySize=auto;html=1;exitX=1;exitY=0.5;exitDx=0;exitDy=0;entryX=0;entryY=0.5;entryDx=0;entryDy=0;" edge="1" parent="1" source="MJdFK97bVDRi1eDM5ko9-25" target="MJdFK97bVDRi1eDM5ko9-60">
          <mxGeometry relative="1" as="geometry" />
        </mxCell>
        <mxCell id="MJdFK97bVDRi1eDM5ko9-25" value="Se valida que los campos sean llenados correctamente" style="rounded=0;whiteSpace=wrap;html=1;" vertex="1" parent="1">
          <mxGeometry x="740" y="380" width="120" height="60" as="geometry" />
        </mxCell>
        <mxCell id="MJdFK97bVDRi1eDM5ko9-73" style="edgeStyle=orthogonalEdgeStyle;rounded=0;orthogonalLoop=1;jettySize=auto;html=1;exitX=0.5;exitY=1;exitDx=0;exitDy=0;entryX=0.5;entryY=0;entryDx=0;entryDy=0;" edge="1" parent="1" source="MJdFK97bVDRi1eDM5ko9-27" target="MJdFK97bVDRi1eDM5ko9-71">
          <mxGeometry relative="1" as="geometry" />
        </mxCell>
        <mxCell id="MJdFK97bVDRi1eDM5ko9-27" value="Envía datos solicitados" style="rounded=0;whiteSpace=wrap;html=1;" vertex="1" parent="1">
          <mxGeometry x="1080" y="470" width="120" height="60" as="geometry" />
        </mxCell>
        <mxCell id="MJdFK97bVDRi1eDM5ko9-87" style="edgeStyle=orthogonalEdgeStyle;rounded=0;orthogonalLoop=1;jettySize=auto;html=1;exitX=0.5;exitY=1;exitDx=0;exitDy=0;entryX=1;entryY=0.5;entryDx=0;entryDy=0;" edge="1" parent="1" source="MJdFK97bVDRi1eDM5ko9-34" target="MJdFK97bVDRi1eDM5ko9-79">
          <mxGeometry relative="1" as="geometry" />
        </mxCell>
        <mxCell id="MJdFK97bVDRi1eDM5ko9-88" value="SI" style="edgeLabel;html=1;align=center;verticalAlign=middle;resizable=0;points=[];" connectable="0" vertex="1" parent="MJdFK97bVDRi1eDM5ko9-87">
          <mxGeometry x="0.4083" y="-2" relative="1" as="geometry">
            <mxPoint as="offset" />
          </mxGeometry>
        </mxCell>
        <mxCell id="MJdFK97bVDRi1eDM5ko9-89" style="edgeStyle=orthogonalEdgeStyle;rounded=0;orthogonalLoop=1;jettySize=auto;html=1;exitX=1;exitY=0.5;exitDx=0;exitDy=0;entryX=1;entryY=0.5;entryDx=0;entryDy=0;" edge="1" parent="1" source="MJdFK97bVDRi1eDM5ko9-34" target="MJdFK97bVDRi1eDM5ko9-86">
          <mxGeometry relative="1" as="geometry" />
        </mxCell>
        <mxCell id="MJdFK97bVDRi1eDM5ko9-90" value="NO" style="edgeLabel;html=1;align=center;verticalAlign=middle;resizable=0;points=[];" connectable="0" vertex="1" parent="MJdFK97bVDRi1eDM5ko9-89">
          <mxGeometry x="0.5094" y="-5" relative="1" as="geometry">
            <mxPoint x="1" as="offset" />
          </mxGeometry>
        </mxCell>
        <mxCell id="MJdFK97bVDRi1eDM5ko9-34" value="¿Los datos se guardan?" style="rhombus;whiteSpace=wrap;html=1;" vertex="1" parent="1">
          <mxGeometry x="1241" y="700" width="85" height="90" as="geometry" />
        </mxCell>
        <mxCell id="MJdFK97bVDRi1eDM5ko9-50" style="edgeStyle=orthogonalEdgeStyle;rounded=0;orthogonalLoop=1;jettySize=auto;html=1;exitX=1;exitY=0.5;exitDx=0;exitDy=0;entryX=0;entryY=0.5;entryDx=0;entryDy=0;" edge="1" parent="1" source="MJdFK97bVDRi1eDM5ko9-38" target="MJdFK97bVDRi1eDM5ko9-46">
          <mxGeometry relative="1" as="geometry" />
        </mxCell>
        <mxCell id="MJdFK97bVDRi1eDM5ko9-38" value="Opción de &quot;Generar estado financiero&quot;" style="rounded=0;whiteSpace=wrap;html=1;" vertex="1" parent="1">
          <mxGeometry x="400" y="520" width="120" height="60" as="geometry" />
        </mxCell>
        <mxCell id="MJdFK97bVDRi1eDM5ko9-54" style="edgeStyle=orthogonalEdgeStyle;rounded=0;orthogonalLoop=1;jettySize=auto;html=1;exitX=1;exitY=0.5;exitDx=0;exitDy=0;entryX=0;entryY=0.5;entryDx=0;entryDy=0;" edge="1" parent="1" source="MJdFK97bVDRi1eDM5ko9-41" target="MJdFK97bVDRi1eDM5ko9-51">
          <mxGeometry relative="1" as="geometry" />
        </mxCell>
        <mxCell id="MJdFK97bVDRi1eDM5ko9-41" value="Opción de &quot;Emitir facturas&quot;" style="rounded=0;whiteSpace=wrap;html=1;" vertex="1" parent="1">
          <mxGeometry x="400" y="340" width="120" height="60" as="geometry" />
        </mxCell>
        <mxCell id="MJdFK97bVDRi1eDM5ko9-49" style="edgeStyle=orthogonalEdgeStyle;rounded=0;orthogonalLoop=1;jettySize=auto;html=1;exitX=1;exitY=0.5;exitDx=0;exitDy=0;entryX=0;entryY=0.5;entryDx=0;entryDy=0;" edge="1" parent="1" source="MJdFK97bVDRi1eDM5ko9-42" target="MJdFK97bVDRi1eDM5ko9-46">
          <mxGeometry relative="1" as="geometry" />
        </mxCell>
        <mxCell id="MJdFK97bVDRi1eDM5ko9-42" value="Opción de &quot;Registrar facturas de pagos de clientes&quot;" style="rounded=0;whiteSpace=wrap;html=1;" vertex="1" parent="1">
          <mxGeometry x="400" y="430" width="120" height="60" as="geometry" />
        </mxCell>
        <mxCell id="MJdFK97bVDRi1eDM5ko9-55" style="edgeStyle=orthogonalEdgeStyle;rounded=0;orthogonalLoop=1;jettySize=auto;html=1;exitX=1;exitY=0.5;exitDx=0;exitDy=0;entryX=0;entryY=0.5;entryDx=0;entryDy=0;" edge="1" parent="1" source="MJdFK97bVDRi1eDM5ko9-46" target="MJdFK97bVDRi1eDM5ko9-25">
          <mxGeometry relative="1" as="geometry" />
        </mxCell>
        <mxCell id="MJdFK97bVDRi1eDM5ko9-46" value="Llenar formulario de datos(parámetros)" style="rounded=0;whiteSpace=wrap;html=1;" vertex="1" parent="1">
          <mxGeometry x="560" y="470" width="120" height="60" as="geometry" />
        </mxCell>
        <mxCell id="MJdFK97bVDRi1eDM5ko9-56" style="edgeStyle=orthogonalEdgeStyle;rounded=0;orthogonalLoop=1;jettySize=auto;html=1;exitX=1;exitY=0.5;exitDx=0;exitDy=0;entryX=0;entryY=0.5;entryDx=0;entryDy=0;" edge="1" parent="1" source="MJdFK97bVDRi1eDM5ko9-51" target="MJdFK97bVDRi1eDM5ko9-25">
          <mxGeometry relative="1" as="geometry" />
        </mxCell>
        <mxCell id="MJdFK97bVDRi1eDM5ko9-51" value="Seleccionar el tipo de impuesto a aplicar" style="rounded=0;whiteSpace=wrap;html=1;" vertex="1" parent="1">
          <mxGeometry x="560" y="300" width="120" height="60" as="geometry" />
        </mxCell>
        <mxCell id="MJdFK97bVDRi1eDM5ko9-65" style="edgeStyle=orthogonalEdgeStyle;rounded=0;orthogonalLoop=1;jettySize=auto;html=1;exitX=1;exitY=0.5;exitDx=0;exitDy=0;entryX=0;entryY=0.5;entryDx=0;entryDy=0;" edge="1" parent="1" source="MJdFK97bVDRi1eDM5ko9-57" target="MJdFK97bVDRi1eDM5ko9-23">
          <mxGeometry relative="1" as="geometry" />
        </mxCell>
        <mxCell id="MJdFK97bVDRi1eDM5ko9-57" value="Enviar datos &quot;Ingresar datos contables&quot;" style="rounded=0;whiteSpace=wrap;html=1;" vertex="1" parent="1">
          <mxGeometry x="900" y="255" width="120" height="60" as="geometry" />
        </mxCell>
        <mxCell id="MJdFK97bVDRi1eDM5ko9-68" style="edgeStyle=orthogonalEdgeStyle;rounded=0;orthogonalLoop=1;jettySize=auto;html=1;exitX=1;exitY=0.5;exitDx=0;exitDy=0;entryX=0;entryY=0.5;entryDx=0;entryDy=0;" edge="1" parent="1" source="MJdFK97bVDRi1eDM5ko9-58" target="MJdFK97bVDRi1eDM5ko9-27">
          <mxGeometry relative="1" as="geometry" />
        </mxCell>
        <mxCell id="MJdFK97bVDRi1eDM5ko9-58" value="Solicitar datos &quot;Emitir factura&quot;" style="rounded=0;whiteSpace=wrap;html=1;" vertex="1" parent="1">
          <mxGeometry x="900" y="430" width="120" height="60" as="geometry" />
        </mxCell>
        <mxCell id="MJdFK97bVDRi1eDM5ko9-66" style="edgeStyle=orthogonalEdgeStyle;rounded=0;orthogonalLoop=1;jettySize=auto;html=1;exitX=1;exitY=0.5;exitDx=0;exitDy=0;entryX=0;entryY=0.5;entryDx=0;entryDy=0;" edge="1" parent="1" source="MJdFK97bVDRi1eDM5ko9-59" target="MJdFK97bVDRi1eDM5ko9-23">
          <mxGeometry relative="1" as="geometry" />
        </mxCell>
        <mxCell id="MJdFK97bVDRi1eDM5ko9-59" value="Enviar datos &quot;Registrar factura&quot;" style="rounded=0;whiteSpace=wrap;html=1;" vertex="1" parent="1">
          <mxGeometry x="900" y="340" width="120" height="60" as="geometry" />
        </mxCell>
        <mxCell id="MJdFK97bVDRi1eDM5ko9-69" style="edgeStyle=orthogonalEdgeStyle;rounded=0;orthogonalLoop=1;jettySize=auto;html=1;exitX=1;exitY=0.5;exitDx=0;exitDy=0;entryX=0;entryY=0.5;entryDx=0;entryDy=0;" edge="1" parent="1" source="MJdFK97bVDRi1eDM5ko9-60" target="MJdFK97bVDRi1eDM5ko9-27">
          <mxGeometry relative="1" as="geometry" />
        </mxCell>
        <mxCell id="MJdFK97bVDRi1eDM5ko9-60" value="Solicitar datos para generar informe" style="rounded=0;whiteSpace=wrap;html=1;" vertex="1" parent="1">
          <mxGeometry x="900" y="520" width="120" height="60" as="geometry" />
        </mxCell>
        <mxCell id="MJdFK97bVDRi1eDM5ko9-74" style="edgeStyle=orthogonalEdgeStyle;rounded=0;orthogonalLoop=1;jettySize=auto;html=1;exitX=0;exitY=0.5;exitDx=0;exitDy=0;" edge="1" parent="1" source="MJdFK97bVDRi1eDM5ko9-71" target="MJdFK97bVDRi1eDM5ko9-72">
          <mxGeometry relative="1" as="geometry" />
        </mxCell>
        <mxCell id="MJdFK97bVDRi1eDM5ko9-75" value="SI" style="edgeLabel;html=1;align=center;verticalAlign=middle;resizable=0;points=[];" connectable="0" vertex="1" parent="MJdFK97bVDRi1eDM5ko9-74">
          <mxGeometry x="-0.0118" y="1" relative="1" as="geometry">
            <mxPoint as="offset" />
          </mxGeometry>
        </mxCell>
        <mxCell id="MJdFK97bVDRi1eDM5ko9-77" style="edgeStyle=orthogonalEdgeStyle;rounded=0;orthogonalLoop=1;jettySize=auto;html=1;exitX=0.5;exitY=1;exitDx=0;exitDy=0;entryX=1;entryY=0.5;entryDx=0;entryDy=0;" edge="1" parent="1" source="MJdFK97bVDRi1eDM5ko9-71" target="MJdFK97bVDRi1eDM5ko9-76">
          <mxGeometry relative="1" as="geometry" />
        </mxCell>
        <mxCell id="MJdFK97bVDRi1eDM5ko9-78" value="SI" style="edgeLabel;html=1;align=center;verticalAlign=middle;resizable=0;points=[];" connectable="0" vertex="1" parent="MJdFK97bVDRi1eDM5ko9-77">
          <mxGeometry x="0.0726" relative="1" as="geometry">
            <mxPoint as="offset" />
          </mxGeometry>
        </mxCell>
        <mxCell id="MJdFK97bVDRi1eDM5ko9-84" style="edgeStyle=orthogonalEdgeStyle;rounded=0;orthogonalLoop=1;jettySize=auto;html=1;exitX=1;exitY=0.5;exitDx=0;exitDy=0;entryX=1;entryY=0.5;entryDx=0;entryDy=0;" edge="1" parent="1" source="MJdFK97bVDRi1eDM5ko9-71" target="MJdFK97bVDRi1eDM5ko9-83">
          <mxGeometry relative="1" as="geometry" />
        </mxCell>
        <mxCell id="MJdFK97bVDRi1eDM5ko9-85" value="NO" style="edgeLabel;html=1;align=center;verticalAlign=middle;resizable=0;points=[];" connectable="0" vertex="1" parent="MJdFK97bVDRi1eDM5ko9-84">
          <mxGeometry x="0.4413" y="-4" relative="1" as="geometry">
            <mxPoint as="offset" />
          </mxGeometry>
        </mxCell>
        <mxCell id="MJdFK97bVDRi1eDM5ko9-71" value="¿Los datos se envían correctamente?" style="rhombus;whiteSpace=wrap;html=1;" vertex="1" parent="1">
          <mxGeometry x="1075" y="585" width="130" height="130" as="geometry" />
        </mxCell>
        <mxCell id="MJdFK97bVDRi1eDM5ko9-72" value="Mensaje &quot;Factura guarda correctamente&quot;" style="rounded=0;whiteSpace=wrap;html=1;" vertex="1" parent="1">
          <mxGeometry x="560" y="580" width="120" height="60" as="geometry" />
        </mxCell>
        <mxCell id="MJdFK97bVDRi1eDM5ko9-93" style="edgeStyle=orthogonalEdgeStyle;rounded=0;orthogonalLoop=1;jettySize=auto;html=1;exitX=0;exitY=0.5;exitDx=0;exitDy=0;entryX=1;entryY=0.5;entryDx=0;entryDy=0;" edge="1" parent="1" source="MJdFK97bVDRi1eDM5ko9-76" target="MJdFK97bVDRi1eDM5ko9-92">
          <mxGeometry relative="1" as="geometry" />
        </mxCell>
        <mxCell id="MJdFK97bVDRi1eDM5ko9-76" value="Se visualiza el estado financiero" style="rounded=0;whiteSpace=wrap;html=1;" vertex="1" parent="1">
          <mxGeometry x="560" y="710" width="120" height="60" as="geometry" />
        </mxCell>
        <mxCell id="MJdFK97bVDRi1eDM5ko9-96" style="edgeStyle=orthogonalEdgeStyle;rounded=0;orthogonalLoop=1;jettySize=auto;html=1;exitX=0;exitY=0.5;exitDx=0;exitDy=0;entryX=1;entryY=0.5;entryDx=0;entryDy=0;" edge="1" parent="1" source="MJdFK97bVDRi1eDM5ko9-79" target="MJdFK97bVDRi1eDM5ko9-92">
          <mxGeometry relative="1" as="geometry" />
        </mxCell>
        <mxCell id="MJdFK97bVDRi1eDM5ko9-79" value="Mensaje &quot;Factura registrada&quot;" style="rounded=0;whiteSpace=wrap;html=1;" vertex="1" parent="1">
          <mxGeometry x="560" y="890" width="120" height="60" as="geometry" />
        </mxCell>
        <mxCell id="MJdFK97bVDRi1eDM5ko9-95" style="edgeStyle=orthogonalEdgeStyle;rounded=0;orthogonalLoop=1;jettySize=auto;html=1;exitX=0;exitY=0.5;exitDx=0;exitDy=0;entryX=1;entryY=0.5;entryDx=0;entryDy=0;" edge="1" parent="1" source="MJdFK97bVDRi1eDM5ko9-83" target="MJdFK97bVDRi1eDM5ko9-92">
          <mxGeometry relative="1" as="geometry" />
        </mxCell>
        <mxCell id="MJdFK97bVDRi1eDM5ko9-83" value="Error" style="rounded=0;whiteSpace=wrap;html=1;" vertex="1" parent="1">
          <mxGeometry x="560" y="800" width="120" height="60" as="geometry" />
        </mxCell>
        <mxCell id="MJdFK97bVDRi1eDM5ko9-97" style="edgeStyle=orthogonalEdgeStyle;rounded=0;orthogonalLoop=1;jettySize=auto;html=1;exitX=0;exitY=0.5;exitDx=0;exitDy=0;entryX=1;entryY=0.5;entryDx=0;entryDy=0;" edge="1" parent="1" source="MJdFK97bVDRi1eDM5ko9-86" target="MJdFK97bVDRi1eDM5ko9-92">
          <mxGeometry relative="1" as="geometry" />
        </mxCell>
        <mxCell id="MJdFK97bVDRi1eDM5ko9-86" value="Error" style="rounded=0;whiteSpace=wrap;html=1;" vertex="1" parent="1">
          <mxGeometry x="560" y="970" width="120" height="60" as="geometry" />
        </mxCell>
        <mxCell id="MJdFK97bVDRi1eDM5ko9-92" value="Cerrar Sesión&amp;nbsp;" style="rounded=0;whiteSpace=wrap;html=1;" vertex="1" parent="1">
          <mxGeometry x="230" y="840" width="120" height="60" as="geometry" />
        </mxCell>
        <mxCell id="MJdFK97bVDRi1eDM5ko9-98" style="edgeStyle=orthogonalEdgeStyle;rounded=0;orthogonalLoop=1;jettySize=auto;html=1;exitX=0;exitY=0.5;exitDx=0;exitDy=0;entryX=1;entryY=0.5;entryDx=0;entryDy=0;entryPerimeter=0;" edge="1" parent="1" source="MJdFK97bVDRi1eDM5ko9-92" target="MJdFK97bVDRi1eDM5ko9-13">
          <mxGeometry relative="1" as="geometry" />
        </mxCell>
      </root>
    </mxGraphModel>
  </diagram>
</mxfile>
